<?xml version="1.0" standalone="no"?>
<!DOCTYPE svg PUBLIC "-//W3C//DTD SVG 20010904//EN"
 "http://www.w3.org/TR/2001/REC-SVG-20010904/DTD/svg10.dtd">
<svg version="1.0" xmlns="http://www.w3.org/2000/svg"
 width="200.000000pt" height="200.000000pt" viewBox="0 0 200.000000 200.000000"
 preserveAspectRatio="xMidYMid meet">

<g transform="translate(0.000000,200.000000) scale(0.100000,-0.100000)"
fill="#000000" stroke="none">
<path d="M1140 1335 c0 -8 -7 -15 -15 -15 -8 0 -15 -4 -15 -10 0 -5 7 -10 15
-10 8 0 15 -7 15 -15 0 -8 7 -15 15 -15 8 0 15 7 15 15 0 8 7 15 15 15 8 0 15
5 15 10 0 6 -7 10 -15 10 -8 0 -15 7 -15 15 0 8 -7 15 -15 15 -8 0 -15 -7 -15
-15z"/>
<path d="M783 1276 l-21 -22 22 -21 22 -21 21 22 21 22 -22 21 -22 21 -21 -22z"/>
<path d="M950 1270 c0 -5 7 -10 15 -10 30 0 14 -28 -19 -33 -72 -12 -151 -91
-163 -163 -3 -19 -11 -34 -19 -34 -22 0 -17 -57 6 -70 12 -7 97 -9 232 -8
l212 3 16 28 c14 27 14 30 -7 44 -13 9 -23 24 -23 35 0 30 -36 93 -69 121 -17
14 -47 31 -68 37 -21 6 -45 14 -53 16 -12 4 -9 10 10 24 l25 20 -47 0 c-27 0
-48 -4 -48 -10z m148 -98 c47 -38 70 -70 78 -109 l7 -33 -192 0 -191 0 6 28
c24 99 103 156 203 148 40 -4 63 -12 89 -34z m112 -176 c0 -23 -24 -26 -224
-26 -186 0 -216 4 -216 32 0 4 99 8 220 8 181 0 220 -2 220 -14z"/>
<path d="M960 1160 c0 -5 9 -10 19 -10 11 0 23 5 26 10 4 6 -5 10 -19 10 -14
0 -26 -4 -26 -10z"/>
<path d="M876 1119 c-27 -32 -33 -49 -16 -49 11 0 69 60 70 73 0 18 -30 4 -54
-24z"/>
<path d="M264 777 c-20 -18 -28 -35 -32 -75 -4 -47 -2 -54 26 -82 37 -36 66
-41 32 -5 -20 21 -24 37 -24 80 0 43 4 59 24 80 29 31 11 33 -26 2z"/>
<path d="M341 784 c9 -10 21 -28 27 -39 10 -18 11 -16 12 14 0 19 -3 31 -6 28
-4 -3 -16 -1 -28 5 -20 10 -20 10 -5 -8z"/>
<path d="M720 780 c0 -5 7 -10 15 -10 8 0 15 5 15 10 0 6 -7 10 -15 10 -8 0
-15 -4 -15 -10z"/>
<path d="M988 704 c2 -56 -1 -90 -8 -100 -10 -12 -7 -14 21 -14 26 0 30 3 21
12 -8 8 -12 45 -12 100 0 64 -3 88 -12 88 -10 0 -12 -22 -10 -86z"/>
<path d="M1564 774 c3 -9 6 -54 6 -100 0 -80 1 -84 22 -84 17 0 19 3 10 12 -8
8 -12 45 -12 100 0 74 -3 88 -16 88 -11 0 -14 -5 -10 -16z"/>
<path d="M436 708 c-28 -39 -16 -98 21 -112 14 -6 16 -5 6 5 -16 16 -17 101
-1 117 9 9 9 12 1 12 -7 0 -19 -10 -27 -22z"/>
<path d="M513 692 c8 -31 7 -45 -6 -70 -17 -35 -9 -42 16 -14 21 23 22 86 1
106 -22 22 -23 21 -11 -22z"/>
<path d="M580 708 c0 -19 2 -20 13 -6 6 9 19 18 27 21 8 3 3 6 -12 6 -22 1
-28 -3 -28 -21z"/>
<path d="M613 666 c-45 -66 -49 -76 -33 -76 5 0 27 26 48 58 54 80 55 82 40
82 -7 0 -32 -29 -55 -64z"/>
<path d="M728 675 c3 -34 -1 -61 -8 -70 -11 -13 -7 -15 21 -15 26 0 30 3 21
12 -7 7 -12 38 -12 70 0 40 -4 58 -12 58 -9 0 -12 -16 -10 -55z"/>
<path d="M808 718 c16 -16 16 -100 0 -116 -9 -9 -4 -12 22 -12 26 0 31 3 22
12 -7 7 -12 38 -12 70 0 53 -2 58 -22 58 -17 0 -19 -3 -10 -12z"/>
<path d="M878 723 c20 -4 22 -10 22 -69 0 -63 0 -64 28 -63 15 0 21 3 15 6 -8
3 -13 24 -13 53 0 68 -7 80 -44 79 -23 -1 -25 -3 -8 -6z"/>
<path d="M1050 721 c23 -7 25 -12 25 -69 0 -59 1 -62 24 -62 18 0 21 3 13 13
-6 7 -12 37 -14 67 l-3 55 -35 2 c-30 2 -31 1 -10 -6z"/>
<path d="M1162 717 c-9 -11 -10 -17 -2 -22 15 -9 23 -1 18 21 -3 15 -4 16 -16
1z"/>
<path d="M1218 719 c6 -7 12 -37 12 -66 0 -56 18 -79 43 -54 9 10 9 12 -3 9
-12 -2 -16 11 -20 57 -4 50 -8 60 -25 63 -16 3 -18 1 -7 -9z"/>
<path d="M1308 718 c7 -7 12 -33 12 -58 0 -25 -5 -51 -12 -58 -9 -9 -4 -12 23
-11 18 0 28 3 22 6 -9 3 -13 27 -13 69 0 59 -2 64 -22 64 -17 0 -19 -3 -10
-12z"/>
<path d="M1378 723 c20 -4 22 -10 22 -69 0 -54 3 -64 18 -64 15 0 17 8 14 57
-5 67 -15 84 -51 82 -23 -2 -24 -2 -3 -6z"/>
<path d="M1486 708 c-34 -48 -8 -119 42 -117 21 1 23 2 7 6 -11 3 -23 10 -27
17 -14 20 -8 84 8 100 14 14 14 16 0 16 -8 0 -22 -10 -30 -22z"/>
<path d="M1646 708 c-28 -39 -16 -98 21 -112 14 -6 16 -5 6 5 -16 16 -17 101
-1 117 9 9 9 12 1 12 -7 0 -19 -10 -27 -22z"/>
<path d="M1722 691 c8 -31 7 -46 -5 -70 -17 -35 -9 -41 16 -13 21 23 22 86 1
106 -22 23 -23 21 -12 -23z"/>
<path d="M1159 651 c-20 -16 -22 -23 -13 -38 6 -10 24 -19 40 -20 27 -3 27 -2
7 7 -29 12 -29 34 -1 54 17 12 19 16 6 16 -9 0 -26 -9 -39 -19z"/>
<path d="M359 620 c-27 -31 -25 -40 3 -17 12 10 33 48 25 47 -1 -1 -14 -14
-28 -30z"/>
<path d="M663 621 c-7 -11 -23 -21 -35 -24 -15 -3 -9 -5 15 -6 33 -1 37 2 37
24 0 30 -2 31 -17 6z"/>
</g>
</svg>
